<svg xmlns="http://www.w3.org/2000/svg" viewBox="0 0 225 224.53"><defs><style>.cls-1{fill:#fff;}</style></defs><title>iob-logo</title><g id="Layer_2" data-name="Layer 2"><g id="Laag_1" data-name="Laag 1"><path class="cls-1" d="M53,137.46a1.18,1.18,0,0,0,1.9.2l17.27-19.31c.63-.71,1.25-1.43,1.89-2.12,3-3.25,5.88-3,8.11.75,4,6.79,8,13.62,12,20.43l.2.31a1.18,1.18,0,0,0,1.84.17c6-6.42,12.11-12.63,17.84-19.14,5.14-5.83,8.22-7.17,12.37,1.18,1.65,3.33,3.58,6.51,5.69,10.09a1.18,1.18,0,0,0,2.18-.43c1.24-8.87,2.39-17.15,3.55-25.43q3.62-25.8,7.25-51.59a6.91,6.91,0,0,1,6.8-5.93q12.15,0,24.31,0c3.77,0,5.16,1.39,5.41,5.09q2.85,42,5.7,84c.75,11,1.6,22.09,2.4,33.14.07.94.11,1.89.14,2.84.09,2.77-1.27,4.42-4,4.79-2.38.31-4.36-1.38-4.6-4.17-.64-7.24-1.14-14.5-1.63-21.76q-3.24-47-6.43-94.08c0-.06,0-.12,0-.2a1.16,1.16,0,0,0-1.13-.87c-5.67,0-11.46-.06-17.24.09-.58,0-1.51,1.33-1.63,2.13-2,13.77-3.9,27.56-5.82,41.34q-3.26,23.49-6.49,47c-.31,2.28-1.21,4.1-3.64,4.58s-3.94-.85-5.08-2.87q-5.3-9.34-10.65-18.66c-.35-.62-.72-1.23-1.15-1.92a1.17,1.17,0,0,0-1.86-.19l-12.72,13.56c-2.6,2.77-5.17,5.57-7.83,8.28-2.88,2.92-5.58,2.64-7.7-.9C86.15,141,82.13,134,78.07,127.14h0a1.17,1.17,0,0,0-1.87-.15c-4.62,5.14-9.14,10.18-13.66,15.23-1.9,2.12-3.74,4.29-5.66,6.39-2.8,3.06-5.84,2.81-7.95-.8-3.61-6.19-7.08-12.45-10.63-18.67-.34-.61-.71-1.2-1.11-1.84a1.18,1.18,0,0,0-1.89-.15c-5.1,5.83-9.91,11.69-15.23,17.06-3.57,3.6-3.56,6.53-1.41,10.92,15.36,31.5,40,51.61,74.32,58,37.71,7,70.54-3.83,96.37-32.51,38.31-42.54,34.85-107.28-8.26-145.22C150,8.06,113.85,1.67,75.18,16.3,44.22,28,23.59,50.56,13.73,82.4a101.55,101.55,0,0,0-3,46.93c.58,3.61-.71,5.81-3.5,6.31-3,.55-5-1.11-5.62-4.86C-3.9,95.86,4.85,64.82,28,38.2,47.43,15.73,72.39,2.61,102,.4c44.76-3.33,80.13,14,105.25,51.38,10.93,16.27,16.3,34.44,17.5,54,2.88,46.83-24.48,90-66.61,109.09C103.52,239.64,36.31,215,11,160.61a64.2,64.2,0,0,1-4-9.92,6.84,6.84,0,0,1,1-5.43c8.32-9.8,16.86-19.42,25.41-29,3-3.33,5.85-3,8.1.81C45.29,123.69,49,130.41,53,137.46Z"/></g></g></svg>