<svg xmlns="http://www.w3.org/2000/svg" viewBox="0 0 424.93 217.78"><defs><style>.cls-1,.cls-2{fill:#fff;}.cls-1{fill-rule:evenodd;}</style></defs><title>iob-logo</title><g id="Layer_2" data-name="Layer 2"><g id="Layer_1-2" data-name="Layer 1"><path class="cls-1" d="M154.88,0h4.95c.39,0,.78.11,1.17.14,2.74.19,5.48.31,8.21.57A96.14,96.14,0,0,1,187,4.14C213.13,11.79,233.8,27,248.74,49.76a104.42,104.42,0,0,1,17.36,54.3,7.09,7.09,0,0,0,.14.89v7.69a7,7,0,0,0-.14.88c0,1.07,0,2.14-.09,3.2a109.18,109.18,0,0,1-59.92,89.41A107.67,107.67,0,0,1,164,217.45c-1.15.07-2.3.22-3.45.33h-6.41c-.27,0-.53-.11-.8-.14-3-.26-6-.45-9-.77a98.06,98.06,0,0,1-17-3.4,109.29,109.29,0,0,1-76.5-81.42,99,99,0,0,1-2.08-13.74c-.26-3.4-.51-6.83-.47-10.24a113.19,113.19,0,0,1,1.27-15.49A108,108,0,0,1,55.88,69C71.9,28.54,110.7,1.28,153.8.14A10.75,10.75,0,0,0,154.88,0Zm78,174c29.84-34,33.72-87.71,3-126.78A99.87,99.87,0,0,0,104.5,24.18C60.29,51.88,51.1,101.26,61,135.08l.69-.76,16.23-18.53c1.07-1.22,2.12-2.45,3.2-3.64a4.09,4.09,0,0,1,4.31-1.31,4.38,4.38,0,0,1,2.73,2.27q5.85,10.31,11.73,20.6c.18.31.37.62.61,1l.79-.86,14.45-16.19c1.61-1.8,3.25-3.57,4.81-5.4a4.27,4.27,0,0,1,7.13.75c.14.27.31.53.46.79L140,134c.16.28.34.54.56.89l.82-.87,20.14-21.54a8.84,8.84,0,0,1,.77-.78,4.09,4.09,0,0,1,3.58-1,4.35,4.35,0,0,1,3,2.31q4.24,7.49,8.52,15a1.8,1.8,0,0,0,.61.81c.06-.3.1-.5.13-.7.15-1.09.3-2.18.45-3.26l1.76-12.6q.86-6.16,1.72-12.33t1.75-12.51q.87-6.21,1.73-12.42t1.75-12.5c.62-4.47,1.23-8.94,1.87-13.41A4.1,4.1,0,0,1,191,46.17a4.65,4.65,0,0,1,2.69-.74h26.56a4.18,4.18,0,0,1,3.9,3.4,10.78,10.78,0,0,1,.14,1.36c.21,3.14.41,6.27.62,9.41q.42,6.39.86,12.79.3,4.52.6,9,.43,6.39.87,12.79.3,4.43.6,8.86.43,6.21.86,12.42.31,4.48.61,9,.42,6,.85,12.05c.27,3.81.52,7.61.79,11.42s.56,7.67.84,11.5q.4,5.48.8,11C232.68,171.55,232.79,172.69,232.91,174ZM123.16,122l-.87.95-18.9,21.18a10.45,10.45,0,0,1-.75.81,4.11,4.11,0,0,1-4.24,1,4.47,4.47,0,0,1-2.54-2.24Q90,133.35,84.09,123c-.16-.28-.33-.54-.58-.94a4.82,4.82,0,0,1-.28.42Q73.83,133.26,64.41,144a1.13,1.13,0,0,0-.11,1.39,99.88,99.88,0,0,0,85.57,62.91,100.39,100.39,0,0,0,18-.27A97.57,97.57,0,0,0,184.12,205,99.71,99.71,0,0,0,224.4,182.8a1.68,1.68,0,0,0,.63-1.58c-.22-2.15-.38-4.31-.55-6.48q-.41-5.29-.8-10.59-.44-5.93-.87-11.87c-.2-2.83-.4-5.66-.6-8.49q-.43-6.12-.86-12.24c-.2-2.92-.4-5.84-.6-8.77q-.42-6.07-.85-12.15c-.27-4-.53-7.92-.8-11.87s-.57-8.1-.84-12.15-.53-8.16-.8-12.24q-.53-7.9-1.06-15.8c-.1-1.55-.22-3.09-.33-4.68h-19c-.06.31-.13.57-.17.84-.33,2.36-.65,4.71-1,7.07q-.87,6.25-1.75,12.51t-1.73,12.42q-.86,6.21-1.73,12.42T189,111.65q-.87,6.21-1.73,12.42-1,6.93-1.94,13.86c-.23,1.63-.4,3.27-.72,4.89a4.16,4.16,0,0,1-5.81,3,4.71,4.71,0,0,1-2.17-2.14q-5.9-10.39-11.82-20.76c-.16-.28-.34-.56-.61-1-.26.33-.43.59-.63.81l-20.32,21.74a8.29,8.29,0,0,1-.64.65,4.1,4.1,0,0,1-3.92.91,4.48,4.48,0,0,1-2.73-2.28q-6.07-10.39-12.17-20.77C123.56,122.68,123.38,122.4,123.16,122Z"/><rect class="cls-2" y="5.4" width="9.08" height="211.88"/><path class="cls-1" d="M365.91,102.38C393.76,93.9,406.77,76,406.77,54.86c0-29.66-25.12-52.36-81.42-52.36-6.66,0-15.44.3-23.31.91V214.67c7.87.6,16.65.91,23.31.91,62.35,0,99.58-22.7,99.58-58.42C424.93,130.23,403.44,110.25,365.91,102.38Zm-54.79-90.5c5.15-.3,10-.3,14.23-.3,50.24,0,72.34,18.46,72.34,43.28,0,24.21-21.19,43.59-69.31,43.59H311.12ZM325.35,206.5c-4.24,0-9.08,0-14.23-.3V107.52H325c56.6,0,90.8,18.77,90.8,49.64S381.65,206.5,325.35,206.5Z"/></g></g></svg>